<svg width="371" height="168" viewBox="0 0 371 168" fill="none" xmlns="http://www.w3.org/2000/svg">
<path d="M51.842 105.28C52.602 105.28 53.202 104.98 53.642 104.38C54.122 103.74 54.482 102.86 54.722 101.74C54.962 100.62 55.102 99.28 55.142 97.72C55.222 96.16 55.262 94.44 55.262 92.56C55.222 88.08 54.842 84.88 54.122 82.96C53.442 81.04 52.322 80.08 50.762 80.08V79.24C51.522 79.24 52.162 79.02 52.682 78.58C53.242 78.14 53.682 77.56 54.002 76.84C54.362 76.08 54.602 75.22 54.722 74.26C54.842 73.3 54.902 72.3 54.902 71.26C54.902 70.42 54.882 69.6 54.842 68.8C54.842 68 54.742 67.3 54.542 66.7C54.382 66.06 54.082 65.56 53.642 65.2C53.242 64.84 52.662 64.68 51.902 64.72C50.582 64.72 49.642 64.8 49.082 64.96C48.562 65.12 48.262 65.34 48.182 65.62C48.102 65.86 48.142 66.16 48.302 66.52C48.502 66.88 48.662 67.26 48.782 67.66C48.902 68.02 48.902 68.42 48.782 68.86C48.702 69.26 48.342 69.66 47.702 70.06C47.142 70.42 46.602 70.52 46.082 70.36C45.602 70.16 45.222 69.84 44.942 69.4C44.702 68.96 44.602 68.44 44.642 67.84C44.682 67.2 44.942 66.6 45.422 66.04C45.942 65.48 46.722 65 47.762 64.6C48.802 64.2 50.182 64 51.902 64C53.582 64 54.882 64.28 55.802 64.84C56.762 65.4 57.442 66.08 57.842 66.88C58.282 67.64 58.522 68.44 58.562 69.28C58.642 70.12 58.682 70.78 58.682 71.26C58.762 76.78 56.622 79.56 52.262 79.6C53.382 79.56 54.442 79.78 55.442 80.26C56.482 80.7 57.382 81.44 58.142 82.48C58.942 83.48 59.562 84.82 60.002 86.5C60.442 88.14 60.662 90.16 60.662 92.56C60.662 94.24 60.562 95.9 60.362 97.54C60.162 99.14 59.742 100.56 59.102 101.8C58.502 103.04 57.622 104.06 56.462 104.86C55.302 105.62 53.762 106 51.842 106C50.122 106 48.742 105.8 47.702 105.4C46.662 105 45.882 104.52 45.362 103.96C44.882 103.4 44.622 102.82 44.582 102.22C44.542 101.58 44.642 101.04 44.882 100.6C45.162 100.16 45.542 99.86 46.022 99.7C46.502 99.54 47.042 99.62 47.642 99.94C48.322 100.34 48.702 100.76 48.782 101.2C48.862 101.6 48.842 102 48.722 102.4C48.602 102.76 48.442 103.12 48.242 103.48C48.082 103.84 48.042 104.16 48.122 104.44C48.202 104.68 48.502 104.88 49.022 105.04C49.582 105.2 50.522 105.28 51.842 105.28ZM75.227 95.08L70.907 66.94L66.887 96.94C66.887 96.34 67.287 95.88 68.087 95.56C68.927 95.24 69.827 95.08 70.787 95.08H75.227ZM75.347 95.68H70.547C70.187 95.68 69.787 95.72 69.347 95.8C68.947 95.84 68.547 95.96 68.147 96.16C67.787 96.32 67.467 96.56 67.187 96.88C66.947 97.16 66.807 97.54 66.767 98.02L65.807 105.4H66.827V106C66.707 106 66.467 106 66.107 106C65.787 106 65.467 106 65.147 106C64.827 106 64.547 106 64.307 106C64.027 106 63.887 105.98 63.887 105.94V105.4H64.847C64.847 105.36 64.927 104.76 65.087 103.6C65.247 102.4 65.447 100.86 65.687 98.98C65.967 97.06 66.267 94.88 66.587 92.44C66.907 90 67.227 87.52 67.547 85C68.307 79.04 69.167 72.28 70.127 64.72H68.627V64H75.107L82.607 105.4H83.807V106H75.227V105.4H76.727L75.347 95.68ZM93.5397 64.72L93.5997 105.28H94.7997V106H87.1797V105.28H88.6797V64.72H87.1797V64H107.28V64.72H106.02L106.08 105.28H107.28V106H99.6597V105.28H101.16V64.72H93.5397ZM127.078 73.6C127.078 73.6 126.938 73.98 126.658 74.74C126.418 75.46 126.098 76.44 125.698 77.68C125.338 78.88 124.898 80.26 124.378 81.82C123.898 83.38 123.398 84.96 122.878 86.56C121.638 90.36 120.238 94.66 118.678 99.46V105.28H119.878V106H112.258V105.28H113.758V64.72H112.258V64H119.878V64.72H118.618L118.678 97.12C118.678 97.12 118.798 96.76 119.038 96.04C119.318 95.28 119.658 94.3 120.058 93.1C120.458 91.86 120.898 90.48 121.378 88.96C121.898 87.4 122.418 85.8 122.938 84.16C124.178 80.36 125.558 76.06 127.078 71.26V64.72H125.578V64H133.198V64.72H131.938L131.998 105.28H133.198V106H125.578V105.28H127.078V73.6ZM155.373 64V66.94H154.593V64.72H148.653L148.713 105.28H149.913V106H142.293V105.28H143.793V64.72H138.153V66.94H137.373V64H155.373ZM168.86 95.08L164.54 66.94L160.52 96.94C160.52 96.34 160.92 95.88 161.72 95.56C162.56 95.24 163.46 95.08 164.42 95.08H168.86ZM168.98 95.68H164.18C163.82 95.68 163.42 95.72 162.98 95.8C162.58 95.84 162.18 95.96 161.78 96.16C161.42 96.32 161.1 96.56 160.82 96.88C160.58 97.16 160.44 97.54 160.4 98.02L159.44 105.4H160.46V106C160.34 106 160.1 106 159.74 106C159.42 106 159.1 106 158.78 106C158.46 106 158.18 106 157.94 106C157.66 106 157.52 105.98 157.52 105.94V105.4H158.48C158.48 105.36 158.56 104.76 158.72 103.6C158.88 102.4 159.08 100.86 159.32 98.98C159.6 97.06 159.9 94.88 160.22 92.44C160.54 90 160.86 87.52 161.18 85C161.94 79.04 162.8 72.28 163.76 64.72H162.26V64H168.74L176.24 105.4H177.44V106H168.86V105.4H170.36L168.98 95.68ZM195.273 86.08H190.893C190.653 86.08 190.313 86.1 189.873 86.14C189.473 86.18 189.073 86.28 188.673 86.44C188.273 86.56 187.933 86.74 187.653 86.98C187.373 87.22 187.233 87.54 187.233 87.94V105.28H188.433V106H180.812V105.28H182.313V64.72H180.812V64H188.433V64.72H187.173L187.233 86.32C187.233 86.16 187.353 86.02 187.593 85.9C187.833 85.78 188.153 85.68 188.553 85.6C188.953 85.48 189.373 85.4 189.813 85.36C190.253 85.28 190.693 85.24 191.133 85.24H195.273V64.72H193.773V64H201.393V64.72H200.133L200.193 105.28H201.393V106H193.773V105.28H195.273V86.08ZM220.351 86.08H215.971C215.731 86.08 215.391 86.1 214.951 86.14C214.551 86.18 214.151 86.28 213.751 86.44C213.351 86.56 213.011 86.74 212.731 86.98C212.451 87.22 212.311 87.54 212.311 87.94V105.28H213.511V106H205.891V105.28H207.391V64.72H205.891V64H213.511V64.72H212.251L212.311 86.32C212.311 86.16 212.431 86.02 212.671 85.9C212.911 85.78 213.231 85.68 213.631 85.6C214.031 85.48 214.451 85.4 214.891 85.36C215.331 85.28 215.771 85.24 216.211 85.24H220.351V64.72H218.851V64H226.471V64.72H225.211L225.271 105.28H226.471V106H218.851V105.28H220.351V86.08ZM243.569 64.72C242.769 64.72 242.029 64.8 241.349 64.96C240.709 65.12 240.129 65.5 239.609 66.1C239.089 66.7 238.689 67.62 238.409 68.86C238.129 70.06 237.989 71.72 237.989 73.84C237.989 76.84 238.009 79.16 238.049 80.8C238.129 82.4 238.269 83.58 238.469 84.34C238.709 85.1 239.049 85.54 239.489 85.66C239.929 85.78 240.549 85.84 241.349 85.84C242.189 85.84 242.769 85.94 243.089 86.14C243.409 86.3 243.569 86.54 243.569 86.86V64.72ZM249.929 64V64.72H248.429V105.22H249.929V106H242.309V105.22H243.509L243.569 89.08C243.569 88.28 243.409 87.68 243.089 87.28C242.809 86.88 242.309 86.68 241.589 86.68C241.069 86.68 240.589 86.72 240.149 86.8C239.709 86.84 239.309 87.14 238.949 87.7C238.629 88.26 238.389 89.18 238.229 90.46C238.069 91.7 237.989 93.52 237.989 95.92C237.989 97.92 237.989 99.56 237.989 100.84C237.989 102.12 237.789 103.16 237.389 103.96C236.989 104.72 236.289 105.26 235.289 105.58C234.329 105.86 232.889 106 230.969 106V105.22C231.729 105.22 232.269 105.1 232.589 104.86C232.949 104.62 233.169 104.16 233.249 103.48C233.369 102.76 233.409 101.8 233.369 100.6C233.329 99.4 233.329 97.84 233.369 95.92C233.369 94.2 233.389 92.74 233.429 91.54C233.509 90.34 233.749 89.36 234.149 88.6C234.589 87.84 235.249 87.3 236.129 86.98C237.049 86.62 238.329 86.4 239.969 86.32C238.329 86.32 237.069 86.12 236.189 85.72C235.309 85.32 234.649 84.64 234.209 83.68C233.809 82.72 233.569 81.44 233.489 79.84C233.409 78.24 233.369 76.24 233.369 73.84C233.369 71.64 233.529 69.9 233.849 68.62C234.209 67.3 234.769 66.3 235.529 65.62C236.329 64.94 237.389 64.5 238.709 64.3C240.029 64.1 241.649 64 243.569 64H249.929ZM275.416 105.16C276.336 105.16 277.136 105.1 277.816 104.98C278.536 104.82 279.116 104.3 279.556 103.42C280.036 102.54 280.396 101.14 280.636 99.22C280.876 97.3 280.996 94.56 280.996 91C280.996 88.32 280.956 86.16 280.876 84.52C280.796 82.84 280.616 81.54 280.336 80.62C280.056 79.66 279.676 79.02 279.196 78.7C278.716 78.34 278.096 78.16 277.336 78.16C276.616 78.16 276.096 78.36 275.776 78.76C275.496 79.16 275.356 79.76 275.356 80.56L275.416 105.16ZM268.996 64H275.356C277.276 64 278.796 64.2 279.916 64.6C281.076 64.96 281.956 65.48 282.556 66.16C283.156 66.8 283.536 67.54 283.696 68.38C283.896 69.22 283.996 70.08 283.996 70.96C283.996 72 283.976 72.94 283.936 73.78C283.896 74.58 283.736 75.28 283.456 75.88C283.176 76.44 282.756 76.88 282.196 77.2C281.636 77.52 280.836 77.68 279.796 77.68C281.236 77.68 282.356 78.02 283.156 78.7C283.956 79.34 284.536 80.24 284.896 81.4C285.256 82.56 285.456 83.96 285.496 85.6C285.576 87.24 285.616 89.04 285.616 91C285.616 94.72 285.436 97.6 285.076 99.64C284.756 101.64 284.196 103.12 283.396 104.08C282.636 105.04 281.596 105.6 280.276 105.76C278.996 105.92 277.376 106 275.416 106H268.996V105.16H270.496V64.84H268.996V64ZM275.356 78.46C275.356 78.14 275.516 77.86 275.836 77.62C276.156 77.38 276.736 77.26 277.576 77.26C278.296 77.26 278.856 77.22 279.256 77.14C279.656 77.06 279.956 76.86 280.156 76.54C280.356 76.18 280.476 75.66 280.516 74.98C280.556 74.3 280.576 73.36 280.576 72.16C280.576 70.32 280.456 68.92 280.216 67.96C280.016 66.96 279.696 66.24 279.256 65.8C278.816 65.32 278.276 65.04 277.636 64.96C276.996 64.88 276.236 64.84 275.356 64.84V78.46ZM290.854 64.72V64H298.474V64.72H297.214L297.274 105.28H298.474V106H290.854V105.28H292.354V64.72H290.854ZM319.436 64C319.436 64 319.436 64.6 319.436 65.8C319.436 66.96 319.436 68.5 319.436 70.42C319.436 72.34 319.436 74.54 319.436 77.02C319.436 79.46 319.436 81.96 319.436 84.52C319.476 87.08 319.496 89.6 319.496 92.08C319.496 94.52 319.496 96.72 319.496 98.68C319.496 100.6 319.496 102.18 319.496 103.42C319.496 104.62 319.496 105.24 319.496 105.28H322.856V108.52H322.136V106H300.476V108.52H299.756V105.28H302.636C303.596 103.52 304.456 101.4 305.216 98.92C305.896 96.84 306.496 94.28 307.016 91.24C307.576 88.16 307.856 84.62 307.856 80.62V64H319.436ZM308.696 64.72V80.56C308.696 84.56 308.416 88.1 307.856 91.18C307.336 94.22 306.756 96.8 306.116 98.92C305.356 101.4 304.496 103.52 303.536 105.28H314.576V64.72H308.696ZM70.9366 146.08H66.5566C66.3166 146.08 65.9766 146.1 65.5366 146.14C65.1366 146.18 64.7366 146.28 64.3366 146.44C63.9366 146.56 63.5966 146.74 63.3166 146.98C63.0366 147.22 62.8966 147.54 62.8966 147.94V165.28H64.0966V166H56.4766V165.28H57.9766V124.72H56.4766V124H64.0966V124.72H62.8366L62.8966 146.32C62.8966 146.16 63.0166 146.02 63.2566 145.9C63.4966 145.78 63.8166 145.68 64.2166 145.6C64.6166 145.48 65.0366 145.4 65.4766 145.36C65.9166 145.28 66.3566 145.24 66.7966 145.24H70.9366V124.72H69.4366V124H77.0566V124.72H75.7966L75.8566 165.28H77.0566V166H69.4366V165.28H70.9366V146.08ZM91.5747 155.08L87.2547 126.94L83.2347 156.94C83.2347 156.34 83.6347 155.88 84.4347 155.56C85.2747 155.24 86.1747 155.08 87.1347 155.08H91.5747ZM91.6947 155.68H86.8947C86.5347 155.68 86.1347 155.72 85.6947 155.8C85.2947 155.84 84.8947 155.96 84.4947 156.16C84.1347 156.32 83.8147 156.56 83.5347 156.88C83.2947 157.16 83.1547 157.54 83.1147 158.02L82.1547 165.4H83.1747V166C83.0547 166 82.8147 166 82.4547 166C82.1347 166 81.8147 166 81.4947 166C81.1747 166 80.8947 166 80.6547 166C80.3747 166 80.2347 165.98 80.2347 165.94V165.4H81.1947C81.1947 165.36 81.2747 164.76 81.4347 163.6C81.5947 162.4 81.7947 160.86 82.0347 158.98C82.3147 157.06 82.6147 154.88 82.9347 152.44C83.2547 150 83.5747 147.52 83.8947 145C84.6547 139.04 85.5147 132.28 86.4747 124.72H84.9747V124H91.4547L98.9547 165.4H100.155V166H91.5747V165.4H93.0747L91.6947 155.68ZM116.607 165.28V124.72H115.107V124H122.727V124.72H121.527L121.467 165.28H128.487V124.72H126.987V124H134.847V124.72H133.407L133.347 165.28H134.907V166H103.527V165.28H105.027V124.72H103.527V124H111.147V124.72H109.947L109.887 165.28H116.607ZM154.91 133.6C154.91 133.6 154.77 133.98 154.49 134.74C154.25 135.46 153.93 136.44 153.53 137.68C153.17 138.88 152.73 140.26 152.21 141.82C151.73 143.38 151.23 144.96 150.71 146.56C149.47 150.36 148.07 154.66 146.51 159.46V165.28H147.71V166H140.09V165.28H141.59V124.72H140.09V124H147.71V124.72H146.45L146.51 157.12C146.51 157.12 146.63 156.76 146.87 156.04C147.15 155.28 147.49 154.3 147.89 153.1C148.29 151.86 148.73 150.48 149.21 148.96C149.73 147.4 150.25 145.8 150.77 144.16C152.01 140.36 153.39 136.06 154.91 131.26V124.72H153.41V124H161.03V124.72H159.77L159.83 165.28H161.03V166H153.41V165.28H154.91V133.6ZM173.665 146.92L166.705 124.72H165.445V124H173.245V124.72H171.745L176.965 141.88L183.325 124.72H182.005V124H185.305V124.72H184.225L177.445 142.84L184.045 165.28H185.305V166H177.385V165.28H178.885L174.265 148L167.425 165.28H168.745V166H165.445V165.28H166.525L173.665 146.92ZM210.115 165.22C210.715 165.22 211.235 165.04 211.675 164.68C212.115 164.28 212.495 163.74 212.815 163.06C213.135 162.38 213.435 161.58 213.715 160.66C213.995 159.74 214.295 158.76 214.615 157.72L205.315 124.72H204.115V124H211.495V124.72H210.115L217.015 149.14L222.955 124.72H221.815V124H224.875V124.72H223.855L215.395 158.62C215.035 159.82 214.675 160.88 214.315 161.8C213.995 162.72 213.635 163.5 213.235 164.14C212.875 164.74 212.435 165.2 211.915 165.52C211.395 165.8 210.775 165.94 210.055 165.94C209.055 165.94 208.235 165.74 207.595 165.34C206.955 164.9 206.475 164.4 206.155 163.84C205.875 163.28 205.715 162.7 205.675 162.1C205.675 161.46 205.775 160.92 205.975 160.48C206.215 160.04 206.555 159.74 206.995 159.58C207.435 159.42 207.935 159.52 208.495 159.88C209.175 160.28 209.555 160.7 209.635 161.14C209.755 161.54 209.715 161.92 209.515 162.28C209.355 162.64 209.135 162.98 208.855 163.3C208.575 163.62 208.375 163.92 208.255 164.2C208.135 164.44 208.195 164.66 208.435 164.86C208.675 165.02 209.235 165.14 210.115 165.22ZM244.384 148.84C243.344 150.04 242.064 150.8 240.544 151.12C239.024 151.44 237.544 151.34 236.104 150.82C234.704 150.26 233.504 149.28 232.504 147.88C231.504 146.44 231.004 144.58 231.004 142.3V124.72H229.504V124H237.124V124.72H235.864V142.3C235.864 144.62 236.104 146.4 236.584 147.64C237.104 148.88 237.764 149.68 238.564 150.04C239.404 150.4 240.324 150.36 241.324 149.92C242.364 149.48 243.384 148.74 244.384 147.7V124.72H242.884V124H250.504V124.72H249.244L249.304 165.28H250.504V166H242.884V165.28H244.384V148.84ZM270.565 146.08H266.185C265.945 146.08 265.605 146.1 265.165 146.14C264.765 146.18 264.365 146.28 263.965 146.44C263.565 146.56 263.225 146.74 262.945 146.98C262.665 147.22 262.525 147.54 262.525 147.94V165.28H263.725V166H256.105V165.28H257.605V124.72H256.105V124H263.725V124.72H262.465L262.525 146.32C262.525 146.16 262.645 146.02 262.885 145.9C263.125 145.78 263.445 145.68 263.845 145.6C264.245 145.48 264.665 145.4 265.105 145.36C265.545 145.28 265.985 145.24 266.425 145.24H270.565V124.72H269.065V124H276.685V124.72H275.425L275.485 165.28H276.685V166H269.065V165.28H270.565V146.08ZM281.304 124.72V124H288.924V124.72H287.664L287.724 165.28H288.924V166H281.304V165.28H282.804V124.72H281.304ZM299.205 165.16C300.125 165.16 300.925 165.1 301.605 164.98C302.325 164.82 302.905 164.3 303.345 163.42C303.825 162.54 304.185 161.14 304.425 159.22C304.665 157.3 304.785 154.56 304.785 151C304.785 148.32 304.745 146.16 304.665 144.52C304.585 142.84 304.405 141.54 304.125 140.62C303.845 139.66 303.465 139.02 302.985 138.7C302.505 138.34 301.885 138.16 301.125 138.16C300.405 138.16 299.885 138.36 299.565 138.76C299.285 139.16 299.145 139.76 299.145 140.56L299.205 165.16ZM292.785 124H299.145C301.065 124 302.585 124.2 303.705 124.6C304.865 124.96 305.745 125.48 306.345 126.16C306.945 126.8 307.325 127.54 307.485 128.38C307.685 129.22 307.785 130.08 307.785 130.96C307.785 132 307.765 132.94 307.725 133.78C307.685 134.58 307.525 135.28 307.245 135.88C306.965 136.44 306.545 136.88 305.985 137.2C305.425 137.52 304.625 137.68 303.585 137.68C305.025 137.68 306.145 138.02 306.945 138.7C307.745 139.34 308.325 140.24 308.685 141.4C309.045 142.56 309.245 143.96 309.285 145.6C309.365 147.24 309.405 149.04 309.405 151C309.405 154.72 309.225 157.6 308.865 159.64C308.545 161.64 307.985 163.12 307.185 164.08C306.425 165.04 305.385 165.6 304.065 165.76C302.785 165.92 301.165 166 299.205 166H292.785V165.16H294.285V124.84H292.785V124ZM299.145 138.46C299.145 138.14 299.305 137.86 299.625 137.62C299.945 137.38 300.525 137.26 301.365 137.26C302.085 137.26 302.645 137.22 303.045 137.14C303.445 137.06 303.745 136.86 303.945 136.54C304.145 136.18 304.265 135.66 304.305 134.98C304.345 134.3 304.365 133.36 304.365 132.16C304.365 130.32 304.245 128.92 304.005 127.96C303.805 126.96 303.485 126.24 303.045 125.8C302.605 125.32 302.065 125.04 301.425 124.96C300.785 124.88 300.025 124.84 299.145 124.84V138.46Z" fill="url(#paint0_linear_513_6)"/>
<line x1="17" y1="0.5" x2="354" y2="0.499971" stroke="url(#paint1_linear_513_6)"/>
<defs>
<linearGradient id="paint0_linear_513_6" x1="-2.20847e-06" y1="157.863" x2="354.731" y2="8.81011" gradientUnits="userSpaceOnUse">
<stop stop-color="#F4D5CC"/>
<stop offset="0.505208" stop-color="#FFF4F1"/>
<stop offset="1" stop-color="#F4D5CC"/>
</linearGradient>
<linearGradient id="paint1_linear_513_6" x1="17" y1="1" x2="354" y2="1.00003" gradientUnits="userSpaceOnUse">
<stop stop-color="white" stop-opacity="0"/>
<stop offset="0.578125" stop-color="white"/>
<stop offset="1" stop-color="white" stop-opacity="0"/>
</linearGradient>
</defs>
</svg>
