<svg width="53" height="53" viewBox="0 0 53 53" fill="none" xmlns="http://www.w3.org/2000/svg">
<g filter="url(#filter0_b_211_303)">
<circle cx="26.4706" cy="26.4706" r="26.4706" transform="matrix(-1 0 0 1 53 0.0294189)" fill="url(#paint0_linear_211_303)"/>
<circle cx="26.4706" cy="26.4706" r="26.4706" transform="matrix(-1 0 0 1 53 0.0294189)" fill="url(#paint1_radial_211_303)" fill-opacity="0.36"/>
<circle cx="26.4706" cy="26.4706" r="25.9706" transform="matrix(-1 0 0 1 53 0.0294189)" stroke="url(#paint2_linear_211_303)" stroke-opacity="0.24"/>
</g>
<path d="M31.1774 26.5579C31.4703 26.8508 31.4703 27.3257 31.1774 27.6186L26.4044 32.3916C26.1115 32.6845 25.6366 32.6845 25.3438 32.3916C25.0509 32.0987 25.0509 31.6238 25.3438 31.3309L29.5864 27.0883L25.3438 22.8456C25.0509 22.5527 25.0509 22.0778 25.3438 21.785C25.6366 21.4921 26.1115 21.4921 26.4044 21.785L31.1774 26.5579ZM29.4706 26.3383H30.6471V27.8383H29.4706V26.3383Z" fill="#F4D5CC"/>
<defs>
<filter id="filter0_b_211_303" x="-19.9412" y="-19.9706" width="92.9412" height="92.9412" filterUnits="userSpaceOnUse" color-interpolation-filters="sRGB">
<feFlood flood-opacity="0" result="BackgroundImageFix"/>
<feGaussianBlur in="BackgroundImageFix" stdDeviation="10"/>
<feComposite in2="SourceAlpha" operator="in" result="effect1_backgroundBlur_211_303"/>
<feBlend mode="normal" in="SourceGraphic" in2="effect1_backgroundBlur_211_303" result="shape"/>
</filter>
<linearGradient id="paint0_linear_211_303" x1="12.9412" y1="52.9412" x2="49.4118" y2="11.1765" gradientUnits="userSpaceOnUse">
<stop/>
<stop offset="0.932292" stop-color="#232323"/>
<stop offset="1" stop-color="#363636"/>
</linearGradient>
<radialGradient id="paint1_radial_211_303" cx="0" cy="0" r="1" gradientUnits="userSpaceOnUse" gradientTransform="translate(16.2594 52.9412) rotate(-45.1092) scale(25.8206 39.0261)">
<stop offset="0.00211167" stop-color="#FF02E7"/>
<stop offset="1" stop-color="#FF02E7" stop-opacity="0"/>
</radialGradient>
<linearGradient id="paint2_linear_211_303" x1="6.75543e-07" y1="32.8992" x2="55.9664" y2="23.0672" gradientUnits="userSpaceOnUse">
<stop stop-color="#5C5C5C"/>
<stop offset="1" stop-color="#494949"/>
</linearGradient>
</defs>
</svg>
