<svg width="295" height="103" viewBox="0 0 295 103" fill="none" xmlns="http://www.w3.org/2000/svg">
<path d="M6.47664 42.16C7.39664 42.16 8.19664 42.1 8.87664 41.98C9.59664 41.82 10.1766 41.3 10.6166 40.42C11.0966 39.54 11.4566 38.14 11.6966 36.22C11.9366 34.3 12.0566 31.56 12.0566 28C12.0566 25.32 12.0166 23.16 11.9366 21.52C11.8566 19.84 11.6766 18.54 11.3966 17.62C11.1166 16.66 10.7366 16.02 10.2566 15.7C9.77664 15.34 9.15664 15.16 8.39664 15.16C7.67664 15.16 7.15664 15.36 6.83664 15.76C6.55664 16.16 6.41664 16.76 6.41664 17.56L6.47664 42.16ZM0.0566406 0.999997H6.41664C8.33664 0.999997 9.85664 1.2 10.9766 1.6C12.1366 1.96 13.0166 2.48 13.6166 3.16C14.2166 3.8 14.5966 4.54 14.7566 5.38C14.9566 6.22 15.0566 7.08 15.0566 7.96C15.0566 9 15.0366 9.94 14.9966 10.78C14.9566 11.58 14.7966 12.28 14.5166 12.88C14.2366 13.44 13.8166 13.88 13.2566 14.2C12.6966 14.52 11.8966 14.68 10.8566 14.68C12.2966 14.68 13.4166 15.02 14.2166 15.7C15.0166 16.34 15.5966 17.24 15.9566 18.4C16.3166 19.56 16.5166 20.96 16.5566 22.6C16.6366 24.24 16.6766 26.04 16.6766 28C16.6766 31.72 16.4966 34.6 16.1366 36.64C15.8166 38.64 15.2566 40.12 14.4566 41.08C13.6966 42.04 12.6566 42.6 11.3366 42.76C10.0566 42.92 8.43664 43 6.47664 43H0.0566406V42.16H1.55664V1.84H0.0566406V0.999997ZM6.41664 15.46C6.41664 15.14 6.57664 14.86 6.89664 14.62C7.21664 14.38 7.79664 14.26 8.63664 14.26C9.35664 14.26 9.91664 14.22 10.3166 14.14C10.7166 14.06 11.0166 13.86 11.2166 13.54C11.4166 13.18 11.5366 12.66 11.5766 11.98C11.6166 11.3 11.6366 10.36 11.6366 9.16C11.6366 7.32 11.5166 5.92 11.2766 4.96C11.0766 3.96 10.7566 3.24 10.3166 2.8C9.87664 2.32 9.33664 2.04 8.69664 1.96C8.05664 1.88 7.29664 1.84 6.41664 1.84V15.46ZM20.9774 1.72V0.999997H28.5974V1.72H27.3374L27.3974 42.28H28.5974V43H20.9774V42.28H22.4774V1.72H20.9774ZM49.559 0.999997C49.559 0.999997 49.559 1.6 49.559 2.8C49.559 3.96 49.559 5.5 49.559 7.42C49.559 9.34 49.559 11.54 49.559 14.02C49.559 16.46 49.559 18.96 49.559 21.52C49.599 24.08 49.619 26.6 49.619 29.08C49.619 31.52 49.619 33.72 49.619 35.68C49.619 37.6 49.619 39.18 49.619 40.42C49.619 41.62 49.619 42.24 49.619 42.28H52.979V45.52H52.259V43H30.599V45.52H29.879V42.28H32.759C33.719 40.52 34.579 38.4 35.339 35.92C36.019 33.84 36.619 31.28 37.139 28.24C37.699 25.16 37.979 21.62 37.979 17.62V0.999997H49.559ZM38.819 1.72V17.56C38.819 21.56 38.539 25.1 37.979 28.18C37.459 31.22 36.879 33.8 36.239 35.92C35.479 38.4 34.619 40.52 33.659 42.28H44.699V1.72H38.819ZM69.441 0.999997V4.18H68.601V1.72H62.901L62.961 42.28H64.161V43H56.541V42.28H58.041V1.72H56.541V0.999997H69.441ZM79.3391 42.22C79.9391 42.22 80.4591 42.04 80.8991 41.68C81.3391 41.28 81.7191 40.74 82.0391 40.06C82.3591 39.38 82.6591 38.58 82.9391 37.66C83.2191 36.74 83.5191 35.76 83.8391 34.72L74.5391 1.72H73.3391V0.999997H80.7191V1.72H79.3391L86.2391 26.14L92.1791 1.72H91.0391V0.999997H94.0991V1.72H93.0791L84.6191 35.62C84.2591 36.82 83.8991 37.88 83.5391 38.8C83.2191 39.72 82.8591 40.5 82.4591 41.14C82.0991 41.74 81.6591 42.2 81.1391 42.52C80.6191 42.8 79.9991 42.94 79.2791 42.94C78.2791 42.94 77.4591 42.74 76.8191 42.34C76.1791 41.9 75.6991 41.4 75.3791 40.84C75.0991 40.28 74.9391 39.7 74.8991 39.1C74.8991 38.46 74.9991 37.92 75.1991 37.48C75.4391 37.04 75.7791 36.74 76.2191 36.58C76.6591 36.42 77.1591 36.52 77.7191 36.88C78.3991 37.28 78.7791 37.7 78.8591 38.14C78.9791 38.54 78.9391 38.92 78.7391 39.28C78.5791 39.64 78.3591 39.98 78.0791 40.3C77.7991 40.62 77.5991 40.92 77.4791 41.2C77.3591 41.44 77.4191 41.66 77.6591 41.86C77.8991 42.02 78.4591 42.14 79.3391 42.22ZM111.269 7.48C111.549 5.8 111.969 4.48 112.529 3.52C113.129 2.56 113.749 1.88 114.389 1.48C115.069 1.08 115.729 0.919998 116.369 0.999997C117.009 1.08 117.529 1.3 117.929 1.66C118.329 1.98 118.569 2.42 118.649 2.98C118.769 3.5 118.609 4.02 118.169 4.54C117.649 5.1 117.169 5.4 116.729 5.44C116.329 5.44 115.929 5.34 115.529 5.14C115.169 4.94 114.829 4.72 114.509 4.48C114.189 4.2 113.889 4.08 113.609 4.12C113.329 4.16 113.069 4.44 112.829 4.96C112.589 5.48 112.349 6.38 112.109 7.66C111.669 9.7 111.429 11.5 111.389 13.06C111.349 14.62 111.229 15.92 111.029 16.96C110.829 18 110.409 18.78 109.769 19.3C109.169 19.82 108.109 20.08 106.589 20.08C108.429 20.08 109.949 20.3 111.149 20.74C112.389 21.14 113.369 21.78 114.089 22.66C114.849 23.5 115.369 24.58 115.649 25.9C115.969 27.18 116.129 28.68 116.129 30.4C116.169 32.32 116.189 34.02 116.189 35.5C116.189 36.98 116.249 38.22 116.369 39.22C116.529 40.18 116.789 40.92 117.149 41.44C117.509 41.96 118.089 42.22 118.889 42.22V43C116.969 43 115.489 42.72 114.449 42.16C113.409 41.6 112.649 40.78 112.169 39.7C111.689 38.62 111.409 37.3 111.329 35.74C111.289 34.18 111.269 32.4 111.269 30.4C111.269 28 111.049 26.18 110.609 24.94C110.169 23.66 109.629 22.74 108.989 22.18C108.349 21.62 107.669 21.32 106.949 21.28C106.229 21.2 105.609 21.16 105.089 21.16L105.149 42.28H106.349V43H98.7285V42.28H100.229V1.72H98.7285V0.999997H106.349V1.72H105.089V19.6C106.809 19.6 108.009 19.42 108.689 19.06C109.369 18.66 109.809 18 110.009 17.08C110.249 16.12 110.389 14.88 110.429 13.36C110.509 11.8 110.789 9.84 111.269 7.48ZM139.33 10.6C139.33 10.6 139.19 10.98 138.91 11.74C138.67 12.46 138.35 13.44 137.95 14.68C137.59 15.88 137.15 17.26 136.63 18.82C136.15 20.38 135.65 21.96 135.13 23.56C133.89 27.36 132.49 31.66 130.93 36.46V42.28H132.13V43H124.51V42.28H126.01V1.72H124.51V0.999997H132.13V1.72H130.87L130.93 34.12C130.93 34.12 131.05 33.76 131.29 33.04C131.57 32.28 131.91 31.3 132.31 30.1C132.71 28.86 133.15 27.48 133.63 25.96C134.15 24.4 134.67 22.8 135.19 21.16C136.43 17.36 137.81 13.06 139.33 8.26V1.72H137.83V0.999997H145.45V1.72H144.19L144.25 42.28H145.45V43H137.83V42.28H139.33V10.6ZM179.692 23.08H175.312C175.072 23.08 174.732 23.1 174.292 23.14C173.892 23.18 173.492 23.28 173.092 23.44C172.692 23.56 172.352 23.74 172.072 23.98C171.792 24.22 171.652 24.54 171.652 24.94V42.28H172.852V43H165.232V42.28H166.732V1.72H165.232V0.999997H172.852V1.72H171.592L171.652 23.32C171.652 23.16 171.772 23.02 172.012 22.9C172.252 22.78 172.572 22.68 172.972 22.6C173.372 22.48 173.792 22.4 174.232 22.36C174.672 22.28 175.112 22.24 175.552 22.24H179.692V1.72H178.192V0.999997H185.812V1.72H184.552L184.612 42.28H185.812V43H178.192V42.28H179.692V23.08ZM200.331 32.08L196.011 3.94L191.991 33.94C191.991 33.34 192.391 32.88 193.191 32.56C194.031 32.24 194.931 32.08 195.891 32.08H200.331ZM200.451 32.68H195.651C195.291 32.68 194.891 32.72 194.451 32.8C194.051 32.84 193.651 32.96 193.251 33.16C192.891 33.32 192.571 33.56 192.291 33.88C192.051 34.16 191.911 34.54 191.871 35.02L190.911 42.4H191.931V43C191.811 43 191.571 43 191.211 43C190.891 43 190.571 43 190.251 43C189.931 43 189.651 43 189.411 43C189.131 43 188.991 42.98 188.991 42.94V42.4H189.951C189.951 42.36 190.031 41.76 190.191 40.6C190.351 39.4 190.551 37.86 190.791 35.98C191.071 34.06 191.371 31.88 191.691 29.44C192.011 27 192.331 24.52 192.651 22C193.411 16.04 194.271 9.28 195.231 1.72H193.731V0.999997H200.211L207.711 42.4H208.911V43H200.331V42.4H201.831L200.451 32.68ZM225.363 42.28V1.72H223.863V0.999997H231.483V1.72H230.283L230.223 42.28H237.243V1.72H235.743V0.999997H243.603V1.72H242.163L242.103 42.28H243.663V43H212.283V42.28H213.783V1.72H212.283V0.999997H219.903V1.72H218.703L218.643 42.28H225.363ZM263.666 10.6C263.666 10.6 263.526 10.98 263.246 11.74C263.006 12.46 262.686 13.44 262.286 14.68C261.926 15.88 261.486 17.26 260.966 18.82C260.486 20.38 259.986 21.96 259.466 23.56C258.226 27.36 256.826 31.66 255.266 36.46V42.28H256.466V43H248.846V42.28H250.346V1.72H248.846V0.999997H256.466V1.72H255.206L255.266 34.12C255.266 34.12 255.386 33.76 255.626 33.04C255.906 32.28 256.246 31.3 256.646 30.1C257.046 28.86 257.486 27.48 257.966 25.96C258.486 24.4 259.006 22.8 259.526 21.16C260.766 17.36 262.146 13.06 263.666 8.26V1.72H262.166V0.999997H269.786V1.72H268.526L268.586 42.28H269.786V43H262.166V42.28H263.666V10.6ZM282.421 23.92L275.461 1.72H274.201V0.999997H282.001V1.72H280.501L285.721 18.88L292.081 1.72H290.761V0.999997H294.061V1.72H292.981L286.201 19.84L292.801 42.28H294.061V43H286.141V42.28H287.641L283.021 25L276.181 42.28H277.501V43H274.201V42.28H275.281L282.421 23.92ZM99.9055 102.22C100.506 102.22 101.026 102.04 101.466 101.68C101.906 101.28 102.286 100.74 102.606 100.06C102.926 99.38 103.226 98.58 103.506 97.66C103.786 96.74 104.086 95.76 104.406 94.72L95.1055 61.72H93.9055V61H101.286V61.72H99.9055L106.806 86.14L112.746 61.72H111.606V61H114.666V61.72H113.646L105.186 95.62C104.826 96.82 104.466 97.88 104.106 98.8C103.786 99.72 103.426 100.5 103.026 101.14C102.666 101.74 102.226 102.2 101.706 102.52C101.186 102.8 100.566 102.94 99.8455 102.94C98.8455 102.94 98.0255 102.74 97.3855 102.34C96.7455 101.9 96.2655 101.4 95.9455 100.84C95.6655 100.28 95.5055 99.7 95.4655 99.1C95.4655 98.46 95.5655 97.92 95.7655 97.48C96.0055 97.04 96.3455 96.74 96.7855 96.58C97.2255 96.42 97.7255 96.52 98.2855 96.88C98.9655 97.28 99.3455 97.7 99.4255 98.14C99.5455 98.54 99.5055 98.92 99.3055 99.28C99.1455 99.64 98.9255 99.98 98.6455 100.3C98.3655 100.62 98.1655 100.92 98.0455 101.2C97.9255 101.44 97.9855 101.66 98.2255 101.86C98.4655 102.02 99.0255 102.14 99.9055 102.22ZM134.175 85.84C133.135 87.04 131.855 87.8 130.335 88.12C128.815 88.44 127.335 88.34 125.895 87.82C124.495 87.26 123.295 86.28 122.295 84.88C121.295 83.44 120.795 81.58 120.795 79.3V61.72H119.295V61H126.915V61.72H125.655V79.3C125.655 81.62 125.895 83.4 126.375 84.64C126.895 85.88 127.555 86.68 128.355 87.04C129.195 87.4 130.115 87.36 131.115 86.92C132.155 86.48 133.175 85.74 134.175 84.7V61.72H132.675V61H140.295V61.72H139.035L139.095 102.28H140.295V103H132.675V102.28H134.175V85.84ZM160.356 83.08H155.976C155.736 83.08 155.396 83.1 154.956 83.14C154.556 83.18 154.156 83.28 153.756 83.44C153.356 83.56 153.016 83.74 152.736 83.98C152.456 84.22 152.316 84.54 152.316 84.94V102.28H153.516V103H145.896V102.28H147.396V61.72H145.896V61H153.516V61.72H152.256L152.316 83.32C152.316 83.16 152.436 83.02 152.676 82.9C152.916 82.78 153.236 82.68 153.636 82.6C154.036 82.48 154.456 82.4 154.896 82.36C155.336 82.28 155.776 82.24 156.216 82.24H160.356V61.72H158.856V61H166.476V61.72H165.216L165.276 102.28H166.476V103H158.856V102.28H160.356V83.08ZM171.095 61.72V61H178.715V61.72H177.455L177.515 102.28H178.715V103H171.095V102.28H172.595V61.72H171.095ZM188.996 102.16C189.916 102.16 190.716 102.1 191.396 101.98C192.116 101.82 192.696 101.3 193.136 100.42C193.616 99.54 193.976 98.14 194.216 96.22C194.456 94.3 194.576 91.56 194.576 88C194.576 85.32 194.536 83.16 194.456 81.52C194.376 79.84 194.196 78.54 193.916 77.62C193.636 76.66 193.256 76.02 192.776 75.7C192.296 75.34 191.676 75.16 190.916 75.16C190.196 75.16 189.676 75.36 189.356 75.76C189.076 76.16 188.936 76.76 188.936 77.56L188.996 102.16ZM182.576 61H188.936C190.856 61 192.376 61.2 193.496 61.6C194.656 61.96 195.536 62.48 196.136 63.16C196.736 63.8 197.116 64.54 197.276 65.38C197.476 66.22 197.576 67.08 197.576 67.96C197.576 69 197.556 69.94 197.516 70.78C197.476 71.58 197.316 72.28 197.036 72.88C196.756 73.44 196.336 73.88 195.776 74.2C195.216 74.52 194.416 74.68 193.376 74.68C194.816 74.68 195.936 75.02 196.736 75.7C197.536 76.34 198.116 77.24 198.476 78.4C198.836 79.56 199.036 80.96 199.076 82.6C199.156 84.24 199.196 86.04 199.196 88C199.196 91.72 199.016 94.6 198.656 96.64C198.336 98.64 197.776 100.12 196.976 101.08C196.216 102.04 195.176 102.6 193.856 102.76C192.576 102.92 190.956 103 188.996 103H182.576V102.16H184.076V61.84H182.576V61ZM188.936 75.46C188.936 75.14 189.096 74.86 189.416 74.62C189.736 74.38 190.316 74.26 191.156 74.26C191.876 74.26 192.436 74.22 192.836 74.14C193.236 74.06 193.536 73.86 193.736 73.54C193.936 73.18 194.056 72.66 194.096 71.98C194.136 71.3 194.156 70.36 194.156 69.16C194.156 67.32 194.036 65.92 193.796 64.96C193.596 63.96 193.276 63.24 192.836 62.8C192.396 62.32 191.856 62.04 191.216 61.96C190.576 61.88 189.816 61.84 188.936 61.84V75.46Z" fill="url(#paint0_linear_205_266)"/>
<defs>
<linearGradient id="paint0_linear_205_266" x1="-36" y1="94.8631" x2="318.731" y2="-54.1899" gradientUnits="userSpaceOnUse">
<stop stop-color="#F4D5CC"/>
<stop offset="0.505208" stop-color="#FFF4F1"/>
<stop offset="1" stop-color="#F4D5CC"/>
</linearGradient>
</defs>
</svg>
